<svg width="25" height="21" viewBox="0 0 25 21" fill="none" xmlns="http://www.w3.org/2000/svg">
<path d="M10.4528 19.3076C10.3368 19.1946 9.84084 18.7679 9.43284 18.3704C6.86684 16.0402 2.66684 9.96127 1.38484 6.77958C1.17884 6.29639 0.742844 5.07476 0.714844 4.42206C0.714844 3.79663 0.858844 3.20043 1.15084 2.63151C1.55884 1.9223 2.20084 1.35338 2.95884 1.04164C3.48484 0.840955 5.05884 0.529216 5.08684 0.529216C6.80884 0.217477 9.60684 0.0460205 12.6988 0.0460205C15.6448 0.0460205 18.3288 0.217477 20.0768 0.472713C20.1048 0.501939 22.0608 0.813678 22.7308 1.15464C23.9548 1.78007 24.7148 3.0017 24.7148 4.30905V4.42206C24.6848 5.27349 23.9248 7.06404 23.8968 7.06404C22.6128 10.0743 18.6188 16.0129 15.9648 18.3996C15.9648 18.3996 15.2828 19.0718 14.8568 19.3641C14.2448 19.82 13.4868 20.046 12.7288 20.046C11.8828 20.046 11.0948 19.7908 10.4528 19.3076Z" fill="#3E3F40"/>
</svg>
